<?xml version="1.0" encoding="UTF-8"?>
<svg viewBox="0 0 17 17" version="1.1" xmlns="http://www.w3.org/2000/svg" xmlns:xlink="http://www.w3.org/1999/xlink">><path fill="#6772E5" class="hover-fillDark" d="M8.5 17a8.5 8.5 0 1 1 0-17 8.5 8.5 0 0 1 0 17zm.178-10.89c.76 0 1.726.278 2.486.69V4.443c-.828-.33-1.656-.502-2.484-.502-2.028 0-3.41 1.06-3.41 2.83 0 2.77 3.8 2.32 3.8 3.513 0 .462-.37.612-.93.612-.827 0-1.867-.366-2.706-.823v2.388c.93.4 1.843.592 2.705.592 2.077 0 3.48-1.027 3.48-2.827 0-2.98-3.82-2.447-3.82-3.572-.003-.39.352-.542.877-.542z"></path></svg>