<?xml version="1.0" encoding="UTF-8"?>
<svg viewBox="0 0 17 17" version="1.1" xmlns="http://www.w3.org/2000/svg" xmlns:xlink="http://www.w3.org/1999/xlink"><path fill="#6772E5" class="hover-fillDark" d="M8.5 17a8.5 8.5 0 1 1 0-17 8.5 8.5 0 0 1 0 17zM6.987 6.078a.684.684 0 0 0-.968-.968L3.116 8.012a.684.684 0 0 0 0 .967l2.9 2.9a.684.684 0 0 0 .97-.967l-2.42-2.418 2.42-2.42zm6.996 1.95L11.08 5.123a.684.684 0 0 0-.966.968l2.418 2.42-2.418 2.417a.684.684 0 0 0 .967.967l2.904-2.902a.684.684 0 0 0 0-.966z"></path></svg>